<svg width="1280" height="720" xmlns="http://www.w3.org/2000/svg">
  <defs>
    <linearGradient id="heroBg" x1="0%" y1="0%" x2="100%" y2="100%">
      <stop offset="0%" style="stop-color:#0b0c17;stop-opacity:1" />
      <stop offset="100%" style="stop-color:#1a1628;stop-opacity:1" />
    </linearGradient>
    <linearGradient id="accentGrad" x1="0%" y1="0%" x2="100%" y2="0%">
      <stop offset="0%" style="stop-color:#00f6ff;stop-opacity:1" />
      <stop offset="50%" style="stop-color:#7f5af0;stop-opacity:1" />
      <stop offset="100%" style="stop-color:#ff4ecd;stop-opacity:1" />
    </linearGradient>
  </defs>
  
  <rect width="1280" height="720" fill="url(#heroBg)"/>
  
  <!-- Abstract data visualization elements -->
  <g opacity="0.6">
    <!-- Grid pattern -->
    <defs>
      <pattern id="grid" width="40" height="40" patternUnits="userSpaceOnUse">
        <path d="M 40 0 L 0 0 0 40" fill="none" stroke="rgba(127,90,240,0.1)" stroke-width="1"/>
      </pattern>
    </defs>
    <rect width="1280" height="720" fill="url(#grid)"/>
    
    <!-- Data points -->
    <circle cx="200" cy="200" r="4" fill="rgba(0,246,255,0.4)"/>
    <circle cx="320" cy="180" r="4" fill="rgba(0,246,255,0.5)"/>
    <circle cx="440" cy="220" r="4" fill="rgba(127,90,240,0.4)"/>
    <circle cx="560" cy="190" r="4" fill="rgba(127,90,240,0.5)"/>
    <circle cx="680" cy="240" r="4" fill="rgba(255,77,205,0.4)"/>
    
    <!-- Connected dots (pattern visualization) -->
    <path d="M 200,200 Q 320,180 T 440,220" fill="none" stroke="rgba(127,90,240,0.2)" stroke-width="2"/>
    <path d="M 440,220 Q 560,190 T 680,240" fill="none" stroke="rgba(255,77,205,0.2)" stroke-width="2"/>
    
    <!-- Trend line overlay -->
    <polyline points="150,300 280,250 400,230 520,220 650,240 780,270" 
              fill="none" stroke="url(#accentGrad)" stroke-width="3" opacity="0.4"/>
  </g>
  
  <!-- Central focal element - AI + Journal icon -->
  <g transform="translate(640,360)">
    <!-- Journal/diary icon -->
    <rect x="-80" y="-60" width="160" height="120" rx="8" fill="rgba(21,22,27,0.8)" stroke="rgba(127,90,240,0.3)" stroke-width="2"/>
    <rect x="-60" y="-40" width="120" height="8" rx="2" fill="rgba(233,234,240,0.4)"/>
    <rect x="-60" y="-20" width="100" height="8" rx="2" fill="rgba(233,234,240,0.3)"/>
    <rect x="-60" y="0" width="110" height="8" rx="2" fill="rgba(233,234,240,0.3)"/>
    <rect x="-60" y="20" width="90" height="8" rx="2" fill="rgba(233,234,240,0.3)"/>
    
    <!-- AI/Brain icon overlay -->
    <circle cx="60" cy="-40" r="32" fill="url(#accentGrad)" opacity="0.8"/>
    <path d="M 60,-48 A 12,8 0 0,1 72,-48 A 12,8 0 0,1 84,-48 Q 84,-56 76,-56 Q 68,-60 60,-56 Q 52,-60 44,-56 Q 36,-56 36,-48" 
          fill="#0b0c17" opacity="0.9"/>
    <path d="M 52,-40 A 4,3 0 0,0 52,-36" fill="#0b0c17" opacity="0.9"/>
    <path d="M 68,-40 A 4,3 0 0,0 68,-36" fill="#0b0c17" opacity="0.9"/>
    <path d="M 50,-30 Q 52,-28 54,-28 Q 56,-28 58,-30 Q 60,-32 56,-34" fill="#0b0c17" opacity="0.9"/>
    
    <!-- Neural network connections -->
    <line x1="-20" y1="0" x2="20" y2="-20" stroke="rgba(0,246,255,0.3)" stroke-width="1.5"/>
    <line x1="20" y1="-40" x2="40" y2="-60" stroke="rgba(127,90,240,0.3)" stroke-width="1.5"/>
  </g>
  
  <!-- Decorative elements -->
  <g opacity="0.3">
    <circle cx="1000" cy="150" r="100" fill="rgba(127,90,240,0.1)"/>
    <circle cx="1100" cy="500" r="80" fill="rgba(255,77,205,0.1)"/>
    <circle cx="150" cy="500" r="60" fill="rgba(0,246,255,0.1)"/>
  </g>
  
  <desc>AI-powered trading journal analytics — abstract visualization showing data patterns, psychology tracking, and AI insights integrating to reveal trader blind spots and performance improvements.</desc>
</svg>
