<svg width="800" height="450" xmlns="http://www.w3.org/2000/svg">
  <defs>
    <linearGradient id="bgGrad" x1="0%" y1="0%" x2="100%" y2="100%">
      <stop offset="0%" style="stop-color:#0b0c17;stop-opacity:1" />
      <stop offset="100%" style="stop-color:#1a1628;stop-opacity:1" />
    </linearGradient>
  </defs>
  
  <!-- Background -->
  <rect width="800" height="450" fill="url(#bgGrad)"/>
  
  <!-- Dashboard frame -->
  <rect x="20" y="20" width="760" height="410" fill="rgba(21,22,27,0.9)" stroke="rgba(42,44,52,0.6)" stroke-width="2" rx="8"/>
  
  <!-- Header bar -->
  <rect x="40" y="40" width="720" height="40" fill="rgba(42,44,52,0.4)" rx="6"/>
  <text x="60" y="65" fill="rgba(233,234,240,0.9)" font-family="system-ui" font-size="16" font-weight="600">TradeTrakR Dashboard</text>
  <text x="720" y="65" fill="rgba(233,234,240,0.6)" font-family="system-ui" font-size="12">AI Analytics</text>
  
  <!-- Sidebar -->
  <rect x="40" y="100" width="140" height="310" fill="rgba(18,19,26,0.8)" rx="6"/>
  <text x="60" y="125" fill="rgba(233,234,240,0.8)" font-family="system-ui" font-size="12" font-weight="600">Navigation</text>
  <rect x="60" y="140" width="100" height="25" fill="rgba(127,90,240,0.2)" rx="3"/>
  <text x="110" y="157" fill="rgba(127,90,240,0.9)" font-family="system-ui" font-size="10" text-anchor="middle">Trading Journal</text>
  
  <!-- Main content -->
  <rect x="200" y="100" width="560" height="310" fill="rgba(15,16,28,0.6)" rx="6"/>
  
  <!-- Chart -->
  <rect x="220" y="120" width="300" height="120" fill="rgba(21,22,27,0.8)" stroke="rgba(42,44,52,0.5)" stroke-width="1" rx="6"/>
  <text x="240" y="140" fill="rgba(233,234,240,0.8)" font-family="system-ui" font-size="12" font-weight="600">Time-of-Day Expectancy</text>
  
  <!-- Mock bars -->
  <rect x="250" y="200" width="12" height="30" fill="rgba(255,68,68,0.6)" rx="1"/>
  <rect x="270" y="180" width="12" height="50" fill="rgba(0,255,136,0.6)" rx="1"/>
  <rect x="290" y="160" width="12" height="70" fill="rgba(0,255,136,0.6)" rx="1"/>
  <rect x="310" y="220" width="12" height="10" fill="rgba(255,68,68,0.6)" rx="1"/>
  <rect x="330" y="190" width="12" height="40" fill="rgba(0,255,136,0.6)" rx="1"/>
  <rect x="350" y="210" width="12" height="20" fill="rgba(255,68,68,0.6)" rx="1"/>
  <rect x="370" y="170" width="12" height="60" fill="rgba(0,255,136,0.6)" rx="1"/>
  <rect x="390" y="230" width="12" height="0" fill="rgba(255,68,68,0.6)" rx="1"/>
  
  <!-- Stats -->
  <rect x="540" y="120" width="200" height="60" fill="rgba(21,22,27,0.8)" stroke="rgba(42,44,52,0.5)" stroke-width="1" rx="6"/>
  <text x="560" y="140" fill="rgba(233,234,240,0.8)" font-family="system-ui" font-size="12" font-weight="600">Weekly Stats</text>
  <text x="560" y="160" fill="rgba(0,246,255,0.9)" font-family="system-ui" font-size="18" font-weight="700">+1.2R</text>
  <text x="560" y="175" fill="rgba(233,234,240,0.6)" font-family="system-ui" font-size="10">Net Expectancy</text>
  
  <!-- AI insights -->
  <rect x="220" y="260" width="520" height="130" fill="rgba(21,22,27,0.8)" stroke="rgba(42,44,52,0.5)" stroke-width="1" rx="6"/>
  <text x="240" y="280" fill="rgba(233,234,240,0.8)" font-family="system-ui" font-size="12" font-weight="600">AI Insights</text>
  <text x="240" y="300" fill="rgba(233,234,240,0.7)" font-family="system-ui" font-size="10">• Avoid trading 9:30-10:00 AM</text>
  <text x="240" y="315" fill="rgba(233,234,240,0.7)" font-family="system-ui" font-size="10">• Revenge trades cost -1.8R average</text>
  <text x="240" y="330" fill="rgba(233,234,240,0.7)" font-family="system-ui" font-size="10">• Post-win checklist reduces errors 40%</text>
  <text x="240" y="345" fill="rgba(233,234,240,0.7)" font-family="system-ui" font-size="10">• Calm state correlates with +1.2R</text>
  <text x="240" y="360" fill="rgba(233,234,240,0.7)" font-family="system-ui" font-size="10">• Setup clustering reveals hidden patterns</text>
  
  <!-- Placeholder label -->
  <rect x="20" y="420" width="150" height="20" fill="rgba(255,68,68,0.2)" rx="10"/>
  <text x="95" y="433" fill="rgba(255,68,68,0.9)" font-family="system-ui" font-size="10" font-weight="600" text-anchor="middle">Replace with real dashboard</text>
  
  <desc>Placeholder TradeTrakR dashboard (mobile/tablet view) showing AI analytics and performance stats. This is a mockup that should be replaced with actual product screenshots.</desc>
</svg>
