<svg viewBox="0 0 1100 520" xmlns="http://www.w3.org/2000/svg">
  <defs>
    <linearGradient id="draw-bg" x1="0%" y1="0%" x2="100%" y2="100%">
      <stop offset="0%" style="stop-color:#0f101c;stop-opacity:1" />
      <stop offset="100%" style="stop-color:#191836;stop-opacity:1" />
    </linearGradient>
    <linearGradient id="draw-accent" x1="0%" y1="0%" x2="100%" y2="0%">
      <stop offset="0%" style="stop-color:#00f6ff;stop-opacity:0.9" />
      <stop offset="100%" style="stop-color:#7f5af0;stop-opacity:0.9" />
    </linearGradient>
    <linearGradient id="draw-danger" x1="0%" y1="0%" x2="0%" y2="100%">
      <stop offset="0%" style="stop-color:#ff4ecd;stop-opacity:0.3" />
      <stop offset="100%" style="stop-color:#ff4ecd;stop-opacity:0.1" />
    </linearGradient>
  </defs>
  
  <!-- Background -->
  <rect width="1100" height="520" fill="url(#draw-bg)"/>
  
  <!-- Title -->
  <text x="550" y="45" fill="#00f6ff" font-family="system-ui, sans-serif" font-size="26" font-weight="700" text-anchor="middle">Trailing vs. Static Drawdown: Know Your Buffer</text>
  
  <!-- Equity curve chart -->
  <g transform="translate(80, 80)">
    <rect x="0" y="0" width="480" height="380" rx="10" fill="#1a1b23" stroke="url(#draw-accent)" stroke-width="1.5"/>
    <text x="240" y="30" fill="#e9eaf0" font-family="system-ui, sans-serif" font-size="16" font-weight="600" text-anchor="middle">Equity Curve with Drawdown Zones</text>
    
    <!-- Axes -->
    <line x1="40" y1="340" x2="460" y2="340" stroke="#2a2c34" stroke-width="2"/>
    <line x1="40" y1="340" x2="40" y2="60" stroke="#2a2c34" stroke-width="2"/>
    
    <!-- Equity line (curved) -->
    <path d="M 50,320 Q 120,280 200,240 T 420,200" fill="none" stroke="url(#draw-accent)" stroke-width="3"/>
    <path d="M 420,200 Q 440,180 420,160 T 380,140" fill="none" stroke="#00f6ff" stroke-width="3"/>
    <path d="M 380,140 Q 360,120 400,100" fill="none" stroke="#00f6ff" stroke-width="3"/>
    
    <!-- Static drawdown zone (red) -->
    <path d="M 40,240 L 460,240 L 460,340 L 40,340 Z" fill="url(#draw-danger)"/>
    <line x1="40" y1="240" x2="460" y2="240" stroke="#ff4ecd" stroke-width="2" stroke-dasharray="5,5"/>
    <text x="470" y="245" fill="#ff4ecd" font-family="system-ui, sans-serif" font-size="12" font-weight="600">Static: -5%</text>
    
    <!-- Trailing drawdown zone (blue-green fade) -->
    <path d="M 40,280 L 460,280 L 420,300 L 40,300 Z" fill="#00f6ff" opacity="0.1"/>
    <line x1="420" y1="280" x2="460" y2="280" stroke="#00f6ff" stroke-width="2" stroke-dasharray="5,5"/>
    <text x="470" y="285" fill="#00f6ff" font-family="system-ui, sans-serif" font-size="12" font-weight="600">Trailing: -3%</text>
    
    <!-- Peak marker -->
    <circle cx="420" cy="200" r="5" fill="#00f6ff"/>
    <text x="415" y="195" fill="#00f6ff" font-family="system-ui, sans-serif" font-size="10" text-anchor="end">Peak</text>
    
    <!-- Current position -->
    <circle cx="380" cy="140" r="6" fill="#ff4ecd"/>
    <text x="390" y="155" fill="#ff4ecd" font-family="system-ui, sans-serif" font-size="11" font-weight="600">Current</text>
  </g>
  
  <!-- Daily loss gauge (right side) -->
  <g transform="translate(620, 80)">
    <rect x="0" y="0" width="420" height="380" rx="10" fill="#1a1b23" stroke="url(#draw-accent)" stroke-width="1.5"/>
    <text x="210" y="30" fill="#e9eaf0" font-family="system-ui, sans-serif" font-size="16" font-weight="600" text-anchor="middle">Daily Loss Buffer</text>
    
    <!-- Gauge background -->
    <rect x="80" y="60" width="260" height="200" rx="15" fill="#0f101c"/>
    
    <!-- Circular gauge -->
    <g transform="translate(210, 160)">
      <circle cx="0" cy="0" r="90" fill="none" stroke="#2a2c34" stroke-width="14"/>
      <circle cx="0" cy="0" r="90" fill="none" stroke="url(#draw-danger)" stroke-width="14" 
              stroke-dasharray="283" stroke-dashoffset="85" transform="rotate(-90)" stroke-linecap="round"/>
      <text x="0" y="-10" fill="#e9eaf0" font-family="system-ui, sans-serif" font-size="32" font-weight="700" text-anchor="middle">70%</text>
      <text x="0" y="15" fill="#9ca3b8" font-family="system-ui, sans-serif" font-size="14" text-anchor="middle">used</text>
    </g>
    
    <!-- Stats -->
    <text x="80" y="290" fill="#e9eaf0" font-family="system-ui, sans-serif" font-size="13" font-weight="600">Limit: $1,000</text>
    <text x="280" y="290" fill="#e9eaf0" font-family="system-ui, sans-serif" font-size="13" font-weight="600" text-anchor="end">Used: $700</text>
    <text x="210" y="310" fill="#9ca3b8" font-family="system-ui, sans-serif" font-size="12" text-anchor="middle">Remaining: $300</text>
    
    <!-- Alert -->
    <rect x="80" y="325" width="260" height="35" rx="6" fill="#ff4ecd" opacity="0.15" stroke="#ff4ecd" stroke-width="1.5"/>
    <text x="210" y="345" fill="#ff4ecd" font-family="system-ui, sans-serif" font-size="13" font-weight="600" text-anchor="middle">⚠️ Alert: &lt; 35% remaining</text>
  </g>
  
  <!-- Bottom legend -->
  <rect x="80" y="460" width="940" height="50" rx="6" fill="#1a1b23"/>
  <text x="100" y="485" fill="#e9eaf0" font-family="system-ui, sans-serif" font-size="13" font-weight="600">Static Drawdown</text>
  <text x="100" y="505" fill="#9ca3b8" font-family="system-ui, sans-serif" font-size="11">Maximum allowed loss from starting balance</text>
  
  <text x="550" y="485" fill="#e9eaf0" font-family="system-ui, sans-serif" font-size="13" font-weight="600">Trailing Drawdown</text>
  <text x="550" y="505" fill="#9ca3b8" font-family="system-ui, sans-serif" font-size="11">Resets at each new equity peak</text>
</svg>

