<svg viewBox="0 0 1280 720" xmlns="http://www.w3.org/2000/svg">
  <defs>
    <linearGradient id="bg-gradient" x1="0%" y1="0%" x2="100%" y2="100%">
      <stop offset="0%" style="stop-color:#0f101c;stop-opacity:1" />
      <stop offset="100%" style="stop-color:#191836;stop-opacity:1" />
    </linearGradient>
    <linearGradient id="accent-gradient" x1="0%" y1="0%" x2="100%" y2="0%">
      <stop offset="0%" style="stop-color:#00f6ff;stop-opacity:0.9" />
      <stop offset="50%" style="stop-color:#7f5af0;stop-opacity:0.9" />
      <stop offset="100%" style="stop-color:#ff4ecd;stop-opacity:0.9" />
    </linearGradient>
    <filter id="glow">
      <feGaussianBlur stdDeviation="4" result="coloredBlur"/>
      <feMerge>
        <feMergeNode in="coloredBlur"/>
        <feMergeNode in="SourceGraphic"/>
      </feMerge>
    </filter>
  </defs>
  
  <!-- Background -->
  <rect width="1280" height="720" fill="url(#bg-gradient)"/>
  
  <!-- Subtle grid pattern -->
  <pattern id="grid" width="40" height="40" patternUnits="userSpaceOnUse">
    <path d="M 40 0 L 0 0 0 40" fill="none" stroke="#1a1b23" stroke-width="0.5"/>
  </pattern>
  <rect width="1280" height="720" fill="url(#grid)" opacity="0.3"/>
  
  <!-- Desk surface -->
  <rect x="0" y="520" width="1280" height="200" fill="#15161b"/>
  <line x1="0" y1="520" x2="1280" y2="520" stroke="url(#accent-gradient)" stroke-width="2"/>
  
  <!-- Daily Loss Buffer Gauge (left) -->
  <g transform="translate(80, 120)">
    <rect x="0" y="0" width="280" height="180" rx="12" fill="#1a1b23" stroke="url(#accent-gradient)" stroke-width="1.5" opacity="0.9"/>
    <text x="140" y="35" fill="#00f6ff" font-family="system-ui, sans-serif" font-size="16" font-weight="600" text-anchor="middle">Daily Loss Buffer</text>
    
    <!-- Circular gauge -->
    <g transform="translate(140, 100)">
      <circle cx="0" cy="0" r="50" fill="none" stroke="#2a2c34" stroke-width="8"/>
      <circle cx="0" cy="0" r="50" fill="none" stroke="url(#accent-gradient)" stroke-width="8" 
              stroke-dasharray="157" stroke-dashoffset="47" transform="rotate(-90)" stroke-linecap="round"/>
      <text x="0" y="-5" fill="#e9eaf0" font-family="system-ui, sans-serif" font-size="24" font-weight="700" text-anchor="middle">70%</text>
      <text x="0" y="18" fill="#9ca3b8" font-family="system-ui, sans-serif" font-size="11" text-anchor="middle">$2,100 / $3,000</text>
    </g>
    
    <!-- Status text -->
    <text x="140" y="175" fill="#9ca3b8" font-family="system-ui, sans-serif" font-size="13" text-anchor="middle">Remaining: $900</text>
  </g>
  
  <!-- Trailing Drawdown Meter (center-left) -->
  <g transform="translate(420, 120)">
    <rect x="0" y="0" width="260" height="180" rx="12" fill="#1a1b23" stroke="url(#accent-gradient)" stroke-width="1.5" opacity="0.9"/>
    <text x="130" y="35" fill="#7f5af0" font-family="system-ui, sans-serif" font-size="16" font-weight="600" text-anchor="middle">Trailing Drawdown</text>
    
    <!-- Horizontal meter -->
    <rect x="20" y="80" width="220" height="20" rx="10" fill="#2a2c34"/>
    <rect x="20" y="80" width="176" height="20" rx="10" fill="url(#accent-gradient)"/>
    <text x="130" y="100" fill="#e9eaf0" font-family="system-ui, sans-serif" font-size="14" font-weight="600" text-anchor="middle">-2.4%</text>
    
    <!-- Limits -->
    <text x="20" y="145" fill="#9ca3b8" font-family="system-ui, sans-serif" font-size="12">Min: -3.0%</text>
    <text x="220" y="145" fill="#9ca3b8" font-family="system-ui, sans-serif" font-size="12" text-anchor="end">Max: 5.0%</text>
    
    <text x="130" y="175" fill="#9ca3b8" font-family="system-ui, sans-serif" font-size="13" text-anchor="middle">Current: $42,400 (-$1,050)</text>
  </g>
  
  <!-- Phase Progress Bars (center-right) -->
  <g transform="translate(740, 120)">
    <rect x="0" y="0" width="260" height="180" rx="12" fill="#1a1b23" stroke="url(#accent-gradient)" stroke-width="1.5" opacity="0.9"/>
    <text x="130" y="35" fill="#ff4ecd" font-family="system-ui, sans-serif" font-size="16" font-weight="600" text-anchor="middle">Evaluation Progress</text>
    
    <!-- Phase 1 -->
    <text x="20" y="75" fill="#e9eaf0" font-family="system-ui, sans-serif" font-size="13" font-weight="500">Phase 1</text>
    <rect x="20" y="85" width="220" height="12" rx="6" fill="#2a2c34"/>
    <rect x="20" y="85" width="132" height="12" rx="6" fill="url(#accent-gradient)"/>
    <text x="245" y="94" fill="#9ca3b8" font-family="system-ui, sans-serif" font-size="11" text-anchor="end">60%</text>
    
    <!-- Phase 2 -->
    <text x="20" y="125" fill="#e9eaf0" font-family="system-ui, sans-serif" font-size="13" font-weight="500">Phase 2</text>
    <rect x="20" y="135" width="220" height="12" rx="6" fill="#2a2c34"/>
    <rect x="20" y="135" width="88" height="12" rx="6" fill="url(#accent-gradient)" opacity="0.6"/>
    <text x="245" y="144" fill="#9ca3b8" font-family="system-ui, sans-serif" font-size="11" text-anchor="end">40%</text>
    
    <text x="130" y="175" fill="#9ca3b8" font-family="system-ui, sans-serif" font-size="13" text-anchor="middle">Profit: $1,800 / $3,000</text>
  </g>
  
  <!-- Rule Ledger Card (right) -->
  <g transform="translate(1050, 120)">
    <rect x="0" y="0" width="150" height="180" rx="12" fill="#1a1b23" stroke="url(#accent-gradient)" stroke-width="1.5" opacity="0.9"/>
    <text x="75" y="35" fill="#00f6ff" font-family="system-ui, sans-serif" font-size="16" font-weight="600" text-anchor="middle">Rule Ledger</text>
    
    <!-- Checkbox and label pairs -->
    <g transform="translate(20, 60)">
      <circle cx="8" cy="8" r="7" fill="none" stroke="#00f6ff" stroke-width="2"/>
      <circle cx="8" cy="8" r="4" fill="#00f6ff"/>
      <text x="24" y="12" fill="#e9eaf0" font-family="system-ui, sans-serif" font-size="12">Max contracts</text>
    </g>
    
    <g transform="translate(20, 95)">
      <circle cx="8" cy="8" r="7" fill="none" stroke="#00f6ff" stroke-width="2"/>
      <circle cx="8" cy="8" r="4" fill="#00f6ff"/>
      <text x="24" y="12" fill="#e9eaf0" font-family="system-ui, sans-serif" font-size="12">News filter</text>
    </g>
    
    <g transform="translate(20, 130)">
      <circle cx="8" cy="8" r="7" fill="none" stroke="#ff4ecd" stroke-width="2"/>
      <circle cx="8" cy="8" r="4" fill="#ff4ecd"/>
      <text x="24" y="12" fill="#9ca3b8" font-family="system-ui, sans-serif" font-size="12">Session time</text>
    </g>
  </g>
  
  <!-- Laptop monitor mockup (bottom center) -->
  <g transform="translate(520, 350)">
    <rect x="0" y="0" width="240" height="140" rx="8" fill="#0f101c" stroke="url(#accent-gradient)" stroke-width="2"/>
    <rect x="10" y="10" width="220" height="120" fill="#1a1b23"/>
    
    <!-- Screen elements -->
    <rect x="20" y="20" width="60" height="8" rx="2" fill="#00f6ff" opacity="0.6"/>
    <rect x="20" y="35" width="40" height="6" rx="2" fill="#9ca3b8" opacity="0.4"/>
    <rect x="20" y="50" width="180" height="4" rx="2" fill="#2a2c34"/>
    <rect x="20" y="58" width="150" height="4" rx="2" fill="#2a2c34"/>
    
    <!-- Data grid preview -->
    <rect x="20" y="70" width="180" height="50" rx="3" fill="#0f101c"/>
    <line x1="20" y1="90" x2="200" y2="90" stroke="#2a2c34" stroke-width="0.5"/>
    <line x1="80" y1="70" x2="80" y2="120" stroke="#2a2c34" stroke-width="0.5"/>
    <line x1="130" y1="70" x2="130" y2="120" stroke="#2a2c34" stroke-width="0.5"/>
  </g>
  
  <!-- Subtle accent circles for visual interest -->
  <circle cx="100" cy="450" r="60" fill="url(#accent-gradient)" opacity="0.08" filter="url(#glow)"/>
  <circle cx="1180" cy="250" r="80" fill="url(#accent-gradient)" opacity="0.06" filter="url(#glow)"/>
</svg>

