<svg width="1200" height="630" xmlns="http://www.w3.org/2000/svg">
  <defs>
    <linearGradient id="bgGrad" x1="0%" y1="0%" x2="100%" y2="100%">
      <stop offset="0%" style="stop-color:#0b0c17;stop-opacity:1" />
      <stop offset="100%" style="stop-color:#1a1628;stop-opacity:1" />
    </linearGradient>
  </defs>
  
  <!-- Background -->
  <rect width="1200" height="630" fill="url(#bgGrad)"/>
  
  <!-- Dashboard frame -->
  <rect x="40" y="40" width="1120" height="550" fill="rgba(21,22,27,0.9)" stroke="rgba(42,44,52,0.6)" stroke-width="2" rx="12"/>
  
  <!-- Header bar -->
  <rect x="60" y="60" width="1080" height="50" fill="rgba(42,44,52,0.4)" rx="8"/>
  <text x="80" y="90" fill="rgba(233,234,240,0.9)" font-family="system-ui" font-size="18" font-weight="600">TradeTrakR Dashboard</text>
  <text x="1100" y="90" fill="rgba(233,234,240,0.6)" font-family="system-ui" font-size="14">AI Analytics</text>
  
  <!-- Sidebar -->
  <rect x="60" y="130" width="180" height="440" fill="rgba(18,19,26,0.8)" rx="8"/>
  <text x="80" y="155" fill="rgba(233,234,240,0.8)" font-family="system-ui" font-size="14" font-weight="600">Navigation</text>
  <rect x="80" y="175" width="140" height="30" fill="rgba(127,90,240,0.2)" rx="4"/>
  <text x="150" y="195" fill="rgba(127,90,240,0.9)" font-family="system-ui" font-size="12" text-anchor="middle">Trading Journal</text>
  
  <!-- Main content -->
  <rect x="260" y="130" width="900" height="440" fill="rgba(15,16,28,0.6)" rx="8"/>
  
  <!-- Chart -->
  <rect x="280" y="150" width="400" height="180" fill="rgba(21,22,27,0.8)" stroke="rgba(42,44,52,0.5)" stroke-width="1" rx="8"/>
  <text x="300" y="175" fill="rgba(233,234,240,0.8)" font-family="system-ui" font-size="14" font-weight="600">Time-of-Day Expectancy</text>
  
  <!-- Mock bars -->
  <rect x="320" y="250" width="20" height="60" fill="rgba(255,68,68,0.6)" rx="2"/>
  <rect x="350" y="220" width="20" height="90" fill="rgba(0,255,136,0.6)" rx="2"/>
  <rect x="380" y="200" width="20" height="110" fill="rgba(0,255,136,0.6)" rx="2"/>
  <rect x="410" y="280" width="20" height="30" fill="rgba(255,68,68,0.6)" rx="2"/>
  <rect x="440" y="230" width="20" height="80" fill="rgba(0,255,136,0.6)" rx="2"/>
  <rect x="470" y="260" width="20" height="50" fill="rgba(255,68,68,0.6)" rx="2"/>
  <rect x="500" y="210" width="20" height="100" fill="rgba(0,255,136,0.6)" rx="2"/>
  <rect x="530" y="290" width="20" height="20" fill="rgba(255,68,68,0.6)" rx="2"/>
  
  <!-- Stats -->
  <rect x="700" y="150" width="440" height="80" fill="rgba(21,22,27,0.8)" stroke="rgba(42,44,52,0.5)" stroke-width="1" rx="8"/>
  <text x="720" y="175" fill="rgba(233,234,240,0.8)" font-family="system-ui" font-size="14" font-weight="600">Weekly Performance</text>
  <text x="720" y="200" fill="rgba(0,246,255,0.9)" font-family="system-ui" font-size="24" font-weight="700">+1.2R Net Expectancy</text>
  <text x="720" y="220" fill="rgba(0,255,136,0.9)" font-family="system-ui" font-size="18" font-weight="600">87% Rule Adherence</text>
  
  <!-- AI insights -->
  <rect x="280" y="350" width="860" height="200" fill="rgba(21,22,27,0.8)" stroke="rgba(42,44,52,0.5)" stroke-width="1" rx="8"/>
  <text x="300" y="375" fill="rgba(233,234,240,0.8)" font-family="system-ui" font-size="14" font-weight="600">AI-Powered Insights</text>
  <text x="300" y="400" fill="rgba(233,234,240,0.7)" font-family="system-ui" font-size="12">• Avoid trading 9:30-10:00 AM (red zone)</text>
  <text x="300" y="420" fill="rgba(233,234,240,0.7)" font-family="system-ui" font-size="12">• Revenge trades cost -1.8R average</text>
  <text x="300" y="440" fill="rgba(233,234,240,0.7)" font-family="system-ui" font-size="12">• Post-win checklist reduces errors 40%</text>
  <text x="300" y="460" fill="rgba(233,234,240,0.7)" font-family="system-ui" font-size="12">• Calm state correlates with +1.2R expectancy</text>
  <text x="300" y="480" fill="rgba(233,234,240,0.7)" font-family="system-ui" font-size="12">• Setup clustering reveals hidden pattern families</text>
  <text x="300" y="500" fill="rgba(233,234,240,0.7)" font-family="system-ui" font-size="12">• Emotion tracking prevents rule breaks</text>
  
  <!-- Title overlay -->
  <rect x="40" y="40" width="1120" height="80" fill="rgba(0,0,0,0.3)" rx="12"/>
  <text x="600" y="70" fill="rgba(233,234,240,0.95)" font-family="system-ui" font-size="24" font-weight="700" text-anchor="middle">AI-Powered Trading Journal Analytics</text>
  <text x="600" y="95" fill="rgba(233,234,240,0.8)" font-family="system-ui" font-size="14" text-anchor="middle">Real insights from real data — not abstract art</text>
  
  <!-- Placeholder label -->
  <rect x="40" y="580" width="200" height="30" fill="rgba(255,68,68,0.2)" rx="15"/>
  <text x="140" y="600" fill="rgba(255,68,68,0.9)" font-family="system-ui" font-size="12" font-weight="600" text-anchor="middle">Replace with real dashboard</text>
  
  <desc>Open Graph image for AI-Powered Trading Journal Analytics showing TradeTrakR dashboard with AI insights, time-of-day expectancy charts, and performance stats. This is a mockup that should be replaced with actual product screenshots.</desc>
</svg>
