<svg viewBox="0 0 1100 620" xmlns="http://www.w3.org/2000/svg">
  <defs>
    <linearGradient id="comp-bg" x1="0%" y1="0%" x2="100%" y2="100%">
      <stop offset="0%" style="stop-color:#0f101c;stop-opacity:1" />
      <stop offset="100%" style="stop-color:#191836;stop-opacity:1" />
    </linearGradient>
    <linearGradient id="comp-accent" x1="0%" y1="0%" x2="100%" y2="0%">
      <stop offset="0%" style="stop-color:#4c8dff;stop-opacity:0.9" />
      <stop offset="50%" style="stop-color:#6d5dfc;stop-opacity:0.9" />
      <stop offset="100%" style="stop-color:#4338ca;stop-opacity:0.9" />
    </linearGradient>
  </defs>
  
  <!-- Background -->
  <rect width="1100" height="620" fill="url(#comp-bg)"/>
  
  <!-- Title -->
  <text x="550" y="45" fill="#4c8dff" font-family="system-ui, sans-serif" font-size="24" font-weight="700" text-anchor="middle">Quick Comparison: Prop Firm Readiness</text>
  
  <!-- Journal cards in a row -->
  <!-- TraderSync -->
  <g transform="translate(50, 80)">
    <rect x="0" y="0" width="180" height="480" rx="12" fill="#1a1b23" stroke="url(#comp-accent)" stroke-width="1.5"/>
    <rect x="10" y="10" width="160" height="60" rx="6" fill="#0f101c"/>
    <text x="90" y="45" fill="#e9eaf0" font-family="system-ui, sans-serif" font-size="16" font-weight="700" text-anchor="middle">TraderSync</text>
    <rect x="20" y="85" width="140" height="8" rx="2" fill="url(#comp-accent)" opacity="0.9"/>
    <rect x="20" y="105" width="120" height="8" rx="2" fill="url(#comp-accent)" opacity="0.8"/>
    <rect x="20" y="125" width="140" height="8" rx="2" fill="url(#comp-accent)" opacity="0.7"/>
    <rect x="20" y="145" width="100" height="8" rx="2" fill="url(#comp-accent)" opacity="0.6"/>
    <text x="90" y="180" fill="#9ca3b8" font-family="system-ui, sans-serif" font-size="12" text-anchor="middle">Mobile apps</text>
    <text x="90" y="200" fill="#9ca3b8" font-family="system-ui, sans-serif" font-size="12" text-anchor="middle">Multi-broker</text>
    <text x="90" y="220" fill="#9ca3b8" font-family="system-ui, sans-serif" font-size="12" text-anchor="middle">Automation</text>
  </g>
  
  <!-- Edgewonk -->
  <g transform="translate(250, 80)">
    <rect x="0" y="0" width="180" height="480" rx="12" fill="#1a1b23" stroke="url(#comp-accent)" stroke-width="1.5"/>
    <rect x="10" y="10" width="160" height="60" rx="6" fill="#0f101c"/>
    <text x="90" y="45" fill="#e9eaf0" font-family="system-ui, sans-serif" font-size="16" font-weight="700" text-anchor="middle">Edgewonk</text>
    <rect x="20" y="85" width="100" height="8" rx="2" fill="url(#comp-accent)" opacity="0.9"/>
    <rect x="20" y="105" width="140" height="8" rx="2" fill="url(#comp-accent)" opacity="0.8"/>
    <rect x="20" y="125" width="80" height="8" rx="2" fill="url(#comp-accent)" opacity="0.5"/>
    <rect x="20" y="145" width="120" height="8" rx="2" fill="url(#comp-accent)" opacity="0.7"/>
    <text x="90" y="180" fill="#9ca3b8" font-family="system-ui, sans-serif" font-size="12" text-anchor="middle">Manual control</text>
    <text x="90" y="200" fill="#9ca3b8" font-family="system-ui, sans-serif" font-size="12" text-anchor="middle">Deep metrics</text>
    <text x="90" y="220" fill="#9ca3b8" font-family="system-ui, sans-serif" font-size="12" text-anchor="middle">Windows only</text>
  </g>
  
  <!-- TradeZella -->
  <g transform="translate(450, 80)">
    <rect x="0" y="0" width="180" height="480" rx="12" fill="#1a1b23" stroke="url(#comp-accent)" stroke-width="1.5"/>
    <rect x="10" y="10" width="160" height="60" rx="6" fill="#0f101c"/>
    <text x="90" y="45" fill="#e9eaf0" font-family="system-ui, sans-serif" font-size="16" font-weight="700" text-anchor="middle">TradeZella</text>
    <rect x="20" y="85" width="150" height="8" rx="2" fill="url(#comp-accent)" opacity="0.9"/>
    <rect x="20" y="105" width="100" height="8" rx="2" fill="url(#comp-accent)" opacity="0.8"/>
    <rect x="20" y="125" width="140" height="8" rx="2" fill="url(#comp-accent)" opacity="0.8"/>
    <rect x="20" y="145" width="110" height="8" rx="2" fill="url(#comp-accent)" opacity="0.7"/>
    <text x="90" y="180" fill="#9ca3b8" font-family="system-ui, sans-serif" font-size="12" text-anchor="middle">Modern UI</text>
    <text x="90" y="200" fill="#9ca3b8" font-family="system-ui, sans-serif" font-size="12" text-anchor="middle">Auto-imports</text>
    <text x="90" y="220" fill="#9ca3b8" font-family="system-ui, sans-serif" font-size="12" text-anchor="middle">Replay features</text>
  </g>
  
  <!-- Trademetria -->
  <g transform="translate(650, 80)">
    <rect x="0" y="0" width="180" height="480" rx="12" fill="#1a1b23" stroke="url(#comp-accent)" stroke-width="1.5"/>
    <rect x="10" y="10" width="160" height="60" rx="6" fill="#0f101c"/>
    <text x="90" y="45" fill="#e9eaf0" font-family="system-ui, sans-serif" font-size="16" font-weight="700" text-anchor="middle">Trademetria</text>
    <rect x="20" y="85" width="130" height="8" rx="2" fill="url(#comp-accent)" opacity="0.9"/>
    <rect x="20" y="105" width="140" height="8" rx="2" fill="url(#comp-accent)" opacity="0.8"/>
    <rect x="20" y="125" width="120" height="8" rx="2" fill="url(#comp-accent)" opacity="0.7"/>
    <rect x="20" y="145" width="100" height="8" rx="2" fill="url(#comp-accent)" opacity="0.6"/>
    <text x="90" y="180" fill="#9ca3b8" font-family="system-ui, sans-serif" font-size="12" text-anchor="middle">Multi-account</text>
    <text x="90" y="200" fill="#9ca3b8" font-family="system-ui, sans-serif" font-size="12" text-anchor="middle">40+ brokers</text>
    <text x="90" y="220" fill="#9ca3b8" font-family="system-ui, sans-serif" font-size="12" text-anchor="middle">Consolidated</text>
  </g>
  
  <!-- TradeTrakR -->
  <g transform="translate(850, 80)">
    <rect x="0" y="0" width="180" height="480" rx="12" fill="#1a1b23" stroke="#4c8dff" stroke-width="2"/>
    <rect x="10" y="10" width="160" height="60" rx="6" fill="#0f101c"/>
    <rect x="10" y="10" width="160" height="60" rx="6" fill="url(#comp-accent)" opacity="0.1"/>
    <text x="90" y="45" fill="#4c8dff" font-family="system-ui, sans-serif" font-size="16" font-weight="700" text-anchor="middle">TradeTrakR</text>
    <rect x="20" y="85" width="140" height="8" rx="2" fill="url(#comp-accent)" opacity="0.95"/>
    <rect x="20" y="105" width="150" height="8" rx="2" fill="url(#comp-accent)" opacity="0.9"/>
    <rect x="20" y="125" width="145" height="8" rx="2" fill="url(#comp-accent)" opacity="0.9"/>
    <rect x="20" y="145" width="130" height="8" rx="2" fill="url(#comp-accent)" opacity="0.85"/>
    <text x="90" y="180" fill="#9ca3b8" font-family="system-ui, sans-serif" font-size="12" text-anchor="middle">Prop-specific</text>
    <text x="90" y="200" fill="#9ca3b8" font-family="system-ui, sans-serif" font-size="12" text-anchor="middle">AI insights</text>
    <text x="90" y="220" fill="#9ca3b8" font-family="system-ui, sans-serif" font-size="12" text-anchor="middle">Evaluation-ready</text>
  </g>
  
  <!-- Legend -->
  <rect x="50" y="580" width="1000" height="30" rx="6" fill="#1a1b23"/>
  <text x="100" y="600" fill="#e9eaf0" font-family="system-ui, sans-serif" font-size="13" text-anchor="middle">Prop Fit</text>
  <text x="300" y="600" fill="#e9eaf0" font-family="system-ui, sans-serif" font-size="13" text-anchor="middle">Automation</text>
  <text x="500" y="600" fill="#e9eaf0" font-family="system-ui, sans-serif" font-size="13" text-anchor="middle">Psychology</text>
  <text x="700" y="600" fill="#e9eaf0" font-family="system-ui, sans-serif" font-size="13" text-anchor="middle">Exports</text>
  <text x="900" y="600" fill="#4c8dff" font-family="system-ui, sans-serif" font-size="13" font-weight="600" text-anchor="middle">All-In-One</text>
</svg>

